/* XPM */
static char *fotor_2023_2_25_16_51_281677340299[] = {
/* columns rows colors chars-per-pixel */
"30 30 72 1 ",
"  c None",
". c #CF9414",
"X c #D19616",
"o c #D39817",
"O c #D29718",
"+ c #D59A1A",
"@ c #D99E1E",
"# c #DBA01F",
"$ c #D79D22",
"% c #D89F24",
"& c #DCA122",
"* c #DCA329",
"= c #D9A63A",
"- c #DEAA3A",
"; c #E1A625",
": c #E3A827",
"> c #E5AB2A",
", c #E9AE2D",
"< c #EBB12F",
"1 c #E4AB30",
"2 c #E8AF35",
"3 c #E3AE3E",
"4 c #EEB332",
"5 c #E6B13F",
"6 c #EEB53B",
"7 c #F1B635",
"8 c #F3B936",
"9 c #F1B73A",
"0 c #F6BB3A",
"q c #F8BD3D",
"w c #B39556",
"e c #DDAD44",
"r c #DFB658",
"t c #E5B240",
"y c #EBB645",
"u c #EFB942",
"i c #E3B34B",
"p c #EEBD4E",
"a c #F2BC43",
"s c #F8BE42",
"d c #F3BE49",
"f c #EDBB51",
"g c #E8BC5E",
"h c #F0BE50",
"j c #CCAD6B",
"k c #D5B36B",
"l c #D3B97A",
"z c #E5BC67",
"x c #E8BD60",
"c c #F7C14D",
"v c #F9C24A",
"b c #F9C453",
"n c #F3C35A",
"m c #F9C75A",
"M c #EDC469",
"N c #F2C462",
"B c #F4C866",
"V c #FACA64",
"C c #F4C96B",
"Z c #FACD6B",
"A c #EBC574",
"S c #EDCB7D",
"D c #F4CB72",
"F c #FACF70",
"G c #F4CF7E",
"H c #FAD175",
"J c #FAD37C",
"K c #DDC589",
"L c #E1C685",
"P c #F6CF80",
"I c #FAD480",
"U c #F3D796",
/* pixels */
"                              ",
"                              ",
"           KNuaqaaB           ",
"         Da744>,<447dG        ",
"       ju4>+o..oo.o@,7n       ",
"      H6&oo+@@@@@@Ooo#4aw     ",
"     M4#o+@;,>,,,<>;@X+>ul    ",
"    P4$o@&>>&44444494@o+,d    ",
"    7@+@&><;+888877ad9#o@7C   ",
"   h&X@;;<0;o>8q088smb9&X&9   ",
"  L4o+&;,;&+o+@#<qqvVZm2Oo6B  ",
"  d%+;>,;o;;o@#+@8qbVZZm*X>q  ",
"  6o@>><&+,,+>4>@70cVFHZ3O@4  ",
"  7o#>>8;o,>+;8078qbVFJFf@o,  ",
" S>+>><87@o&o@<0q0qbZJJJn%.>  ",
" g@+>,780;.ooX#70qqcZJJJn*.;  ",
" x#+><480q8>o+oX>0sbZIJJf$.;  ",
" A#+><70000<o04oo7dmFIJHiO+&  ",
" U<+:<400007o80;o,dVJIJF-o@*  ",
"  6X@<48000,+807X,mHJIJn*o@e  ",
"  a++><08,>>+>,>+tFJIJF3O+$   ",
"  G>o#<87>+@XXX+*hHJJHf$o@-   ",
"   6@+;400,;o+@>6ZFJDf%O@$    ",
"   k,++>8000+>9dbZZmt%X+$z    ",
"    C>++#<00,4hmbby1+oO+e     ",
"     N,$o+@;>>21*%$Xo@@=      ",
"      A4,+oo+++oXXX@$%r       ",
"       jd77,;#@&;;@$e         ",
"          f987,&&;i           ",
"                              "
};
