/* XPM */
static char *fotor_2023_2_25_17_0_471677340857[] = {
/* columns rows colors chars-per-pixel */
"30 30 84 1 ",
"  c None",
". c #CE961B",
"X c #D19616",
"o c #D1971A",
"O c #D59A1B",
"+ c #D99E1F",
"@ c #DBA01F",
"# c #CD9828",
"$ c #D29B24",
"% c #D99E21",
"& c #D09B29",
"* c #CF9E30",
"= c #DDA222",
"- c #DCA32A",
"; c #D4A134",
": c #DDA531",
"> c #DEA934",
", c #D8A63D",
"< c #DCA93C",
"1 c #E1A626",
"2 c #E1A729",
"3 c #E5AA2B",
"4 c #E9AE2D",
"5 c #EBB02E",
"6 c #E3AB33",
"7 c #E9AF31",
"8 c #E2AE3C",
"9 c #E6B037",
"0 c #EDB332",
"q c #E5B03F",
"w c #EAB43C",
"e c #F1B636",
"r c #F3B836",
"t c #F2B739",
"y c #F6BB3B",
"u c #AE8F49",
"i c #C9A449",
"p c #D0A343",
"a c #D8A642",
"s c #D6A944",
"d c #DCAF4C",
"f c #DBB053",
"g c #DEB65E",
"h c #E2AF42",
"j c #E5B140",
"k c #E9B545",
"l c #E1B14A",
"z c #EBB749",
"x c #EDBA4C",
"c c #F6BD42",
"v c #F9BF42",
"b c #F5BE49",
"n c #EDBD55",
"m c #E1B85F",
"M c #F2BF53",
"N c #C8AA6B",
"B c #D6B66E",
"V c #D9B86F",
"C c #E3BA62",
"Z c #E0B96D",
"A c #F5C04C",
"S c #F8C049",
"D c #F4C151",
"F c #F9C555",
"G c #F2C25C",
"H c #FAC75B",
"J c #FBC85B",
"K c #F4C662",
"L c #F3C867",
"P c #FBCB64",
"I c #F3C76A",
"U c #F3CA6D",
"Y c #FACD6C",
"T c #FCD06E",
"R c #ECC372",
"E c #EDCB77",
"W c #F4CA71",
"Q c #FAD174",
"! c #FAD37C",
"~ c #DDC180",
"^ c #EACF8D",
"/ c #F4D48A",
"( c #F8D68C",
") c #F5DA98",
/* pixels */
"                              ",
"                              ",
"             l30yA~           ",
"            j3eyyycR          ",
"           l-0SytrycE         ",
"          g-4cJn>=5eD         ",
"          >3yFKn-oO10U        ",
"         C-0cPKz3OXO2x        ",
"         <-rDYLn6=oX=9/       ",
"        V-3tPYLnj-%XO3I       ",
"        m%4cQWI:--+XX=n       ",
"        d%0cT!K-OoXXX=w       ",
"        ,=5SQ!Yz6=OXX@w       ",
"        ;=5SQ!YDw2oXX=0/      ",
"        ;=rST!Tx2OXXX+0(      ",
"        &=5ST!Q6XXXXX@0(      ",
"        &=0cP!!$oO=OX@0(      ",
"        #@0cP!!b642oX=w/      ",
"        <O3tP!!G883%X=w^      ",
"        Vo=eFQ!8oOOoO1k       ",
"        B.%0SYQz+OXXO3n       ",
"         ;O2yJYM2@XX=0W       ",
"         fX+evFh%XX=3w)       ",
"         u$o=tv3Xo140G        ",
"          sXX4ye335ewZ        ",
"          N$XOeyrrerK         ",
"           i.XO4yyyA          ",
"            p.XOryA           ",
"             V#.6U            ",
"                              "
};
