/* XPM */
static char *fotor_2023_2_25_16_48_251677340114[] = {
/* columns rows colors chars-per-pixel */
"30 30 74 1 ",
"  c None",
". c #90773B",
"X c #CF9415",
"o c #D19616",
"O c #D39817",
"+ c #D29718",
"@ c #D59A1A",
"# c #D99E1E",
"$ c #DBA01F",
"% c #D79D20",
"& c #DA9F20",
"* c #DDA222",
"= c #DCA42C",
"- c #DEA631",
"; c #DEA933",
": c #E1A625",
"> c #E3A827",
", c #E5AB2A",
"< c #E9AE2D",
"1 c #ECB12F",
"2 c #E2AB33",
"3 c #EEB332",
"4 c #EDB63C",
"5 c #EFB83F",
"6 c #F1B635",
"7 c #F4B937",
"8 c #F1B638",
"9 c #F7BC3A",
"0 c #F8BD3C",
"q c #9F8143",
"w c #B38B4C",
"e c #AD9356",
"r c #DFB55C",
"t c #EEB943",
"y c #ECBB4F",
"u c #F5BC41",
"i c #F8BF41",
"p c #F1BE4C",
"a c #E2B555",
"s c #E6B852",
"d c #EABA55",
"f c #E3B95E",
"g c #EFBF58",
"h c #C2A567",
"j c #E5BE6D",
"k c #F4C04F",
"l c #F8C24C",
"z c #F5C152",
"x c #F9C554",
"c c #F5C45D",
"v c #F9C658",
"b c #EEC366",
"n c #EFC66B",
"m c #F3C564",
"M c #F6C967",
"N c #FACA63",
"B c #F2C76E",
"V c #F3C86D",
"C c #F9CD6C",
"Z c #EBC77F",
"A c #FBCE71",
"S c #F2CA78",
"D c #FBD176",
"F c #F6D27C",
"G c #FBD37C",
"H c #E7C785",
"J c #ECCB81",
"K c #EBCD8A",
"L c #F3CF83",
"P c #EFD086",
"I c #FBD584",
"U c #EDCE94",
"Y c #F6D594",
"T c #F9DB99",
/* pixels */
"                              ",
"             LnbST            ",
"          c96688869lY         ",
"        M83>OXoooo*18p        ",
"      .p1$ooO#@##OOo#<8I      ",
"     h5>@o##>,<,,:#@oo&8I     ",
"     t*o@:,<<<<<,,,,*@o*8K    ",
"    c>o#>11386<363<<<,@O*5    ",
"   Z1@@,166797$9976766<#X>g   ",
"   t$O>6779999o99999776,@@3   ",
"  K3O$3909991$o$*:999900*X3s  ",
"  c<o:990991##o1>O:099ll4@@,  ",
"  5#$799997:O3o7961900lNl*o>  ",
"  6o$0999906@<o090999lvCN=o>U ",
"  8o*09990901oo999009lcDA-X>j ",
"  6X$999999909oo79990lCID-X>f ",
"  8o$909999990oOO:99ixAID-o>r ",
"  8O$909099990O66O99lNGIM=o*H ",
"  t*$399990667O6<@6ixCIIyOo=  ",
"  V3o$09999,@:O,O:0lCGID2o#=  ",
"   6##109990,:o&>0lNDIIg%o*f  ",
"   k>o$6999999o8ilNDIIm=XO*   ",
"   e8$O:699999+9lNDIGm2+O$a   ",
"    C3$O&37779,pMGGAd=@+*=    ",
"     z3*O@>377ucczp2#oO#=q    ",
"      z3*XO##**2=&&+o@*=Z     ",
"       c83#oooooXXX@*=;w      ",
"        Fu68<:&#*>>>,d        ",
"          B5311<,>2s          ",
"              PJK             "
};
