/* XPM */
static char *_328842845e04733cc62e87329fb23d99peh52tBNamzmhMS[] = {
/* columns rows colors chars-per-pixel */
"32 32 56 1 ",
"  c #0A0E0F",
". c #070D15",
"X c #0B0E12",
"o c #0E1216",
"O c #0E151D",
"+ c #0E191F",
"@ c #111516",
"# c #10171F",
"$ c #12191E",
"% c #181C1F",
"& c #22211F",
"* c #0F1722",
"= c #0F1A20",
"- c #121720",
"; c #121B22",
": c #191F26",
"> c #171F28",
", c #181F29",
"< c #2A1E26",
"1 c #162027",
"2 c #1C2126",
"3 c #1C232B",
"4 c #1F292F",
"5 c #2C2127",
"6 c #262827",
"7 c #21262D",
"8 c #2D2229",
"9 c #222A2E",
"0 c #2A2C2B",
"q c #31242B",
"w c #36282D",
"e c #232B31",
"r c #2A2E32",
"t c #3C2D32",
"y c #2B3235",
"u c #2E3539",
"i c #2F393B",
"p c #333436",
"a c #363837",
"s c #313639",
"d c #34393C",
"f c #393D3E",
"g c #423336",
"h c #44353A",
"j c #313840",
"k c #393E41",
"l c #3D4244",
"z c #414646",
"x c #404548",
"c c #444A4A",
"v c #4A4E4F",
"b c #4A5050",
"n c #8A8D8B",
"m c #8C908F",
"M c #8F9392",
"N c #909392",
/* pixels */
"eusflzcccczzlfsuyyreeeeeeeeeeeee",
"rysdflzlzzzffdsyr99477734737eeee",
"yy@$$:222%$$@$@o$@oooooX.XXOXO34",
"ry240sflxxllkkkkllllfkfkklhkk,33",
"ry,49udlllldiudillkddiahhhhkk-,,",
"ey>3eydlzllduyyycldsyyrttttps-,,",
"ey>2eulcvcliyeyeczkuee9qqwwre$,>",
"99>24sllbcldyej7zzkue975qqq69$;>",
"79>27ylvczlse9u3vzfy9435<8q<3O;>",
"32;29ydczzkue3e,vldr423<<<<:>O>>",
"22>>39ufllsy7322lfs94>22::::;O=>",
">2->37rsadye32>>dsr7,>1;:-:>;O>=",
">>;-,399rr9321;>yr9311>1111=1.=1",
";>;>>23344422>->943211;1==11=O1=",
">>$->>>2122>>;>>3211=11==11==O==",
"->=;;-:;211>;;--2;>>11=1====+o==",
"->0-;>;>->>>:;r$;%:-1;=1===1O6$+",
";>634773ee7777&#$7e99494444446$1",
";>pnnnnnnnnmmm0+$NNMmMMmMMmMNa1+",
"**.oOOOOO*oOOOOOOOOoOO+++O+.+.++",
"=*==+--$*-*$$+#+*=++;;=+;=++O.+1",
";*+;+-;;+-;-+;-*=;;==+==++==+.++",
"=*O$;+*=--*$*$*+=;=+==;=+=+;;.+=",
";*O---$=$+*---$++=+==+++===+=.==",
"==O*$$*---*-$*--+*+*+**$++##O.*=",
"==O$*-+---$*-+O*;$*---$+=$##-.++",
"==O*O$---O+-$-O$$--$+$-*++$#+.+=",
";=O+-++-##+-++-+++##+*-O$=*++.++",
"$*O+*+$*+O-OO-+-#-O-###-$#O+O.+*",
"**O-O-$O---+O#O+##-+O*O#OO#OO.O$",
"+*OO#OO*OOOOOOOOOOOOOOOOOOOOO.O-",
"+*-O-####+$*----OOOO-OOOOOO*-;-$"
};
