/* XPM */
static char *fotor_2023_2_25_13_25_181677327931[] = {
/* columns rows colors chars-per-pixel */
"32 32 62 1 ",
"  c None",
". c black",
"X c #010101",
"o c #020202",
"O c #030203",
"+ c gray1",
"@ c gray2",
"# c #070707",
"$ c #090909",
"% c #0A090A",
"& c gray4",
"* c #0B0B0B",
"= c gray5",
"- c #131313",
"; c gray8",
": c gray9",
"> c #181818",
", c gray13",
"< c gray14",
"1 c gray15",
"2 c #272727",
"3 c gray17",
"4 c #343434",
"5 c gray21",
"6 c #393939",
"7 c #3C3C3C",
"8 c #3F3F3F",
"9 c #494949",
"0 c #505050",
"q c gray42",
"w c #747474",
"e c #808080",
"r c #848484",
"t c gray52",
"y c #959595",
"u c gray63",
"i c #A2A2A2",
"p c gray67",
"a c gray75",
"s c #C0C0C0",
"d c #C5C5C5",
"f c gray80",
"g c #D7D7D7",
"h c gray87",
"j c #DFDFDF",
"k c gray90",
"l c #E6E6E6",
"z c #E9E9E9",
"x c #EAEAEA",
"c c #EEEEEE",
"v c gray94",
"b c #F1F1F1",
"n c gray95",
"m c #F3F3F3",
"M c #F6F6F6",
"N c #F8F8F8",
"B c gray98",
"V c #FBFBFB",
"C c gray99",
"Z c #FDFDFD",
"A c #FEFEFE",
"S c white",
/* pixels */
"                                ",
"                                ",
"        .      ....             ",
"        .    .  ....            ",
"                 ....           ",
"                 .@.            ",
"                 .              ",
"                                ",
"                .               ",
"               .@               ",
"              ....              ",
"             .@....             ",
"            .........           ",
"           ..........*..        ",
"          ................      ",
"         ................@*     ",
"        ..+..>....@N-..6l@0.    ",
"        .. .zZ*...eZZ-.pZhg.    ",
"        .+MZZZx@.2ZZZM.ZZZz.    ",
"        .:ZZZZZz,VZZZZsZZZN.    ",
"        .9NZZZZZZZZZZZZZZZZ..   ",
"        .qZZZZZZZZZZZZZZZZZ.    ",
"        .9ZZZbZZZZZZZZZZZZN.    ",
"        .>ZZ3fZZZZZZZZZZs5d.    ",
"         .Zi.2ZZZZZZ>ZZZ..r.    ",
"         .w*..bZZZZ7@hZy.@3.    ",
"          ....=NZZ5..iZ....     ",
"           ....5b....r=...      ",
"             ..........         ",
"                ..              ",
"                                ",
"                                "
};
