/* XPM */
static char *fotor_2023_2_25_13_26_321677328002[] = {
/* columns rows colors chars-per-pixel */
"32 32 51 1 ",
"  c None",
". c black",
"X c #010101",
"o c #020202",
"O c #020203",
"+ c gray1",
"@ c #040404",
"# c gray2",
"$ c #0B0B0B",
"% c gray5",
"& c #101010",
"* c gray8",
"= c gray13",
"- c #272727",
"; c #2F2B2E",
": c #2C2C2C",
"> c #2E2C2D",
", c gray18",
"< c #444444",
"1 c #4B4B4B",
"2 c #4E4E4E",
"3 c gray32",
"4 c #535353",
"5 c gray34",
"6 c #5A5A5A",
"7 c gray36",
"8 c #7C7C7C",
"9 c gray49",
"0 c #838383",
"q c gray56",
"w c gray58",
"e c #979797",
"r c gray66",
"t c #AAAAAA",
"y c #ACACAC",
"u c #B2B2B2",
"i c #D9D0D5",
"p c #DFDFDF",
"a c #E1E1E1",
"s c #E6E1E2",
"d c #E7E7E7",
"f c #ECECEC",
"g c gray93",
"h c gray94",
"j c #F4F4F4",
"k c gray96",
"l c gray97",
"z c gray98",
"x c #FBFBFB",
"c c gray99",
"v c #FEFEFE",
/* pixels */
"                                ",
"                                ",
"                                ",
"                                ",
"            OOOOOO              ",
"           OOOOOOOO             ",
"       O   O    OOOO            ",
"       OOOO     OOOO            ",
"                OO              ",
"               O                ",
"              OO                ",
"            OOOO                ",
"          OOOOOOO               ",
"         OOOOOOOOOO             ",
"        OOOOOOOOOOOOO           ",
"       OOOOOOOOOOOOOOOO         ",
"      OOOOOOOOOOOOOOOOOO        ",
"      OOOOOOOOOOOOOOOOOOO       ",
"     OOOOOOOOOOOOOOOOOOOOO      ",
"     OOOOOOOOOOOOOOOOOOOOO      ",
"     OOOOOOOOOOOOOOOOOO$*O      ",
"     OO2OO%%OOOOOO@OOO=p6O      ",
"     OO1>wqf@OOOO0jOO@hOuO      ",
"      OOd6O3rOOOr8fpOl-OO       ",
"      OOOOOOj8:v5OOrx3OO        ",
"       OOOOOOklOOOOOOO          ",
"          OOOe<OOOOOO           ",
"             ;>O                ",
"             i                  ",
"             xs                 ",
"                                ",
"                                "
};
