/* XPM */
static char *e5ff42f226034e639502765c8da28540s6eOSTHVoE23rlgy[] = {
/* columns rows colors chars-per-pixel */
"31 31 116 2 ",
"   c #0E1F17",
".  c #0E1C1D",
"X  c #1D1B1A",
"o  c #221F1D",
"O  c #21201E",
"+  c #322C1E",
"@  c #1D2927",
"#  c #152E2A",
"$  c #14312D",
"%  c #19302A",
"&  c #262522",
"*  c #282725",
"=  c #2A2926",
"-  c #2D2D2B",
";  c #332D23",
":  c #312E2C",
">  c #382F28",
",  c #2F302B",
"<  c #353026",
"1  c #32312E",
"2  c #3B342B",
"3  c #3D3929",
"4  c #322F31",
"5  c #293430",
"6  c #2C3834",
"7  c #353433",
"8  c #393634",
"9  c #373833",
"0  c #3A3936",
"q  c #373538",
"w  c #3B3738",
"e  c #343B38",
"r  c #3D3C3A",
"t  c #523B1D",
"y  c #413425",
"u  c #40372E",
"i  c #41392C",
"p  c #543B21",
"a  c #413932",
"s  c #4C3F33",
"d  c #413E3C",
"f  c #3E403E",
"g  c #49412E",
"h  c #4C4030",
"j  c #42413E",
"k  c #49443F",
"l  c #413F40",
"z  c #3D7B6C",
"x  c #454443",
"c  c #494644",
"v  c #474843",
"b  c #4A4946",
"n  c #4A4748",
"m  c #424848",
"M  c #4C4B4A",
"N  c #544E42",
"B  c #534C41",
"V  c #504D48",
"C  c #504C49",
"Z  c #504C4B",
"A  c #514D4C",
"S  c #504F4D",
"D  c #534F4E",
"F  c #564E4C",
"G  c #504D4C",
"H  c #4C504F",
"J  c #5F5744",
"K  c #50514C",
"L  c #51504E",
"P  c #51514F",
"I  c #53544F",
"U  c #52504F",
"Y  c #514F50",
"T  c #4B5753",
"R  c #4F5450",
"E  c #4F5251",
"W  c #4F5C55",
"Q  c #4C5856",
"!  c #4F5958",
"~  c #545351",
"^  c #555452",
"/  c gray33",
"(  c #575654",
")  c #555552",
"_  c #585252",
"`  c #5E5B54",
"'  c #5A5C57",
"]  c #5E5E56",
"[  c #545D58",
"{  c #575C58",
"}  c #595B58",
"|  c #5F5E59",
" . c #5F5F5D",
".. c #5C5D5B",
"X. c #625646",
"o. c #635646",
"O. c #615E5A",
"+. c #636059",
"@. c #66635C",
"#. c #69665F",
"$. c #6B675D",
"%. c #6D6B5F",
"&. c #6D6B5E",
"*. c #716857",
"=. c #70665A",
"-. c #736A5B",
";. c #716A58",
":. c #4B7F72",
">. c #4B7E75",
",. c #517C73",
"<. c #6E6963",
"1. c #6F6D61",
"2. c #6F8381",
"3. c #738380",
"4. c #77908D",
"5. c #779490",
/* pixels */
" .: r b j b b k c c : d 0 0 c x c 7 7 d 7 c c c c Z x C j - ' ",
"x 8 M n j 8 : * : y p < < r c d n r ; > t y : & = 9 x c M 7 b ",
"7 b M r r r 1 1 j 0 v r 0 0 7 7 5 0 0 j c w l 1 1 d r j M b 9 ",
"~ w x & c b M x k 0 f q c M M = M U n 8 r w d x M M x - b r ( ",
"r x b 0 r c x b x 7 b r M M S M M M M r M 7 x b c x r 0 v c r ",
"c - v M x x x c r 7 8 r B x d 0 x c N d 8 1 d c x j x M k - b ",
"c r c M x x k 2 7 7 r b r F - - , U j n r 7 1 u x x c M x r x ",
"x 0 r M M #.=.> 0 0 r b n 7 7 & 1 8 n c r r 0 2 -.<.M b r 9 x ",
"r , r b j +.&.j ~ 0 8 8 j X 7 & , X x 7 7 r I j 1.@.r c 0 - r ",
"d = 0 8 8 j 7 0 d 0 r 1 c X : : 8 X x 7 r 0 j r 7 j 8 7 0 - j ",
"x 8 8 1 x j 8 0 r r X.j r d r x j x r k J r 0 l 7 x c 7 7 7 v ",
"0 0 * 1 j : - f 0 s i 0 : e r x r j - 1 3 h 0 f - < j 7 - r r ",
"M c 5 8 w 7 : f } ..d H 7 7 c b c 7 5 n w ` ) j , 9 0 7 1 b b ",
"M n q w x f n c n x 0 r 7 7 c - x 7 8 r j b b c n r x r r b M ",
"M n 5 >.H T c b M M c c c 7 % [ @ 7 c c v b M x v W E ,.e b b ",
"8 M - 8 M ~ c 5.3.8 q   r S 8 7 7 _ r . 8 e 2.4.x U Z 1 = Z e ",
"b b 6 z E Q n c b b M c b 7 # ..# 4 x c x b n c c ! E >.e n b ",
"M n r f x r M b Z x r r 7 8 c - x 7 e r r v b x M r x r r n b ",
"b x , 7 r 7 - j [ +.f M 4 w x x c 0 q n r O.} d 7 8 0 7 , n v ",
"r r = , j , 7 j r h 3 1 : f r x r w - 7 3 g r d - , x 8 - 0 q ",
"x 7 9 8 x j 8 r 0 d X.j r c r x j d r d o.j 9 j 7 j x 8 7 7 x ",
"r - 0 8 7 f 9 d j 0 j 7 v O 1 1 1 o c 7 r w k r 8 d 7 q r - r ",
"r - r b d O.&.j ) r 8 0 x X 7 & 1 X j 0 9 r I j $.O.d b r , 0 ",
"x 0 r b M #.;.2 0 r w v n 7 7 O 7 8 b c r r r 2 ;.$.Z M r r c ",
"c r x b c x j a 1 7 0 n j K - 1 - S d n r 1 1 a k x x b x d c ",
"c - x b c j j b j 7 8 r c c d 0 d x B r 8 7 d b k d x b c - v ",
"r c c 0 r c x b x 7 v r M M E c U K M w n e x M c x r 8 n v f ",
"( 0 c * c M Z x r r r 0 b M ~ = U U b 9 f 7 r j M b x O n 0 / ",
"7 n n f r r 7 - d 0 n x 0 7 7 q 1 0 7 d n 0 r 7 1 f f w H b 4 ",
"c e M c x 8 - & - y t < ; j c 0 c d + ; p i = & = 8 x b b 8 c ",
" .7 r M r n b v c c 7 d 8 7 c x c 7 8 r : c x b n M j M r 1 O."
};
