/* XPM */
static char *_6c08d1b68cc4b4eaa35ef131cd9ca95n7gKsWNhk7wOpOGv[] = {
/* columns rows colors chars-per-pixel */
"33 33 157 2 ",
"   c None",
".  c black",
"X  c #01014C",
"o  c #020273",
"O  c #030373",
"+  c #020274",
"@  c #020275",
"#  c #010177",
"$  c #020276",
"%  c #020277",
"&  c #050574",
"*  c #080876",
"=  c #0C0C77",
"-  c #010178",
";  c #010179",
":  c #01017A",
">  c #01017B",
",  c #01017C",
"<  c #01017E",
"1  c #787877",
"2  c #7F7F7E",
"3  c #000081",
"4  c #000082",
"5  c #000083",
"6  c #000084",
"7  c #000085",
"8  c #000086",
"9  c #000087",
"0  c #000089",
"q  c #00008A",
"w  c #00008B",
"e  c #00008C",
"r  c #00008D",
"t  c #00008E",
"y  c #00008F",
"u  c #111181",
"i  c #000090",
"p  c #000091",
"a  c #000092",
"s  c #000093",
"d  c #000094",
"f  c #000096",
"g  c #000097",
"h  c #000098",
"j  c #000099",
"k  c #00009A",
"l  c #00009B",
"z  c #00009C",
"x  c #00009F",
"c  c #202081",
"v  c #2D2D87",
"b  c #2E2E88",
"n  c #33338B",
"m  c #0000A1",
"M  c #0000A2",
"N  c #0000A3",
"B  c #0000A4",
"V  c #0000A5",
"C  c #0000A6",
"Z  c #0000A7",
"A  c #0000A9",
"S  c #0000AA",
"D  c #0000AB",
"F  c #0000AC",
"G  c #0000AD",
"H  c #0000AE",
"J  c #0000AF",
"K  c #0000B0",
"L  c #0000B1",
"P  c #0000B2",
"I  c #0000B3",
"U  c #0000B5",
"Y  c #0000B7",
"T  c #0000B8",
"R  c #0000B9",
"E  c #0000BA",
"W  c #0000BB",
"Q  c #0000BC",
"!  c #0000BD",
"~  c #0000BE",
"^  c #0000BF",
"/  c #4B4B99",
"(  c #4D4D9B",
")  c #4E4E9B",
"_  c #54549F",
"`  c #6C6C9C",
"'  c #5C5CA0",
"]  c #0000C0",
"[  c #0202C1",
"{  c #0101C2",
"}  c #0101C3",
"|  c #0101C6",
" . c #0101C7",
".. c #0202C8",
"X. c #0202CA",
"o. c #0202CB",
"O. c #0202CD",
"+. c #0202CE",
"@. c #0303D0",
"#. c #0303D1",
"$. c #0303D2",
"%. c #0404D5",
"&. c #0404D7",
"*. c #0F0FD1",
"=. c #0909D6",
"-. c #0C0CD6",
";. c #0404D9",
":. c #0404DC",
">. c #0505DC",
",. c #0505DF",
"<. c #1B1BDA",
"1. c #3D3DC7",
"2. c #0505E3",
"3. c #0606E5",
"4. c #0606E6",
"5. c #0606E7",
"6. c #0808E7",
"7. c #0A0AE7",
"8. c #0B0BE7",
"9. c #1616E8",
"0. c #2222E1",
"q. c #2323E5",
"w. c #2626E6",
"e. c #2A2AE9",
"r. c #2F2FE8",
"t. c #2E2EEA",
"y. c #3232EB",
"u. c #3434EB",
"i. c #3939EC",
"p. c #4646EE",
"a. c #4E4EEF",
"s. c #4E4EF0",
"d. c #5252F0",
"f. c #5757F1",
"g. c #5A5AF2",
"h. c #6262F3",
"j. c #6F6FF2",
"k. c #7070F5",
"l. c #818180",
"z. c #848483",
"x. c #898988",
"c. c #8E8E8E",
"v. c #9F9F9F",
"b. c #A2A2A2",
"n. c gray66",
"m. c #AEAEAF",
"M. c #B2B2B3",
"N. c #C4C4C5",
"B. c #CACACB",
"V. c #CDCDCE",
"C. c gray84",
"Z. c #D8D8D8",
"A. c gray87",
"S. c #E5E5E4",
"D. c #E7E7E6",
"F. c #EFEFEF",
"G. c gray97",
/* pixels */
"                                                                  ",
"                                                                  ",
"                                                                  ",
"                                                                  ",
"                                                                  ",
"                                                                  ",
"                                                                  ",
"                        =.7.&.$.#.o.^ ^ P                         ",
"                    7.e.s.u.5.2.+.$.| ^ J P J                     ",
"                  e.s.k.j.i.9.5.:.$.$.^ Y J S V                   ",
"                q.s.k.k.g.e.5.5.:.&.[ ^ E E S M M                 ",
"              -.s.k.k.f.y.5.5.5.;.$.| [ ^ ^ J V M d               ",
"            w.e.k.k.d.r.e.5.5.5.:.;.+.+.^ ^ S S M s s             ",
"            [ a.j.h.e.7.5.5.5.5.:.$.$.[ ^ ^ J S s s s             ",
"          o.0.r.p.1.5.5.5.5.S.F.C.m.` ^ P P G.D.M.n.5 5           ",
"          ^ <.e.*.2.5.2.5.,.A.S.. . . ^ E Z.D.. . . s 5           ",
"          ^ ^ ^ $.$.%.:.#.;.N.V.. . . E P N.B.. . . 2 5           ",
"          ^ ^ ^ o.| $.$.#.$.b.m.. . . Y J v.m.. . . 5 5           ",
"          P E ^ ^ | [ +.| [ c.x.x.1 Y J J V l.z.2 1 9 @           ",
"          J P E ^ ^ ^ ^ ^ ^ ^ ^ Y P J M M M M d e 9 5 o           ",
"          J J J J Y E P ^ P ^ J Y J J M M z z w 9 9 @ o           ",
"          j J M S S J P P E J J S S V M M d e 9 w @ o o           ",
"          j M M V S V S S S S M V M d s s e 5 5 5 5 o X           ",
"          s s s j V j M M M M z j j s s s s 5 5 5 @ o o           ",
"          5 s s s j s d j M z j s s s s 9 9 5 o @ o o o           ",
"          5 s s e w s s s s e w w w 9 5 5 5 5 o o o * o           ",
"          5 5 5 9 5 w s   9 e 5 5 5 5 5   @ o o c ) b o           ",
"          @ o o , - 5       5 5 - , -       o o / ' ) o           ",
"            o o 5 - u       - - @ @ =       o v _ _ o             ",
"              o o o           @ o o           o n &               ",
"                                                                  ",
"                                                                  ",
"                                                                  "
};
