/* XPM */
static char *a30f9211645c489cd2176947252024aboX9yeMKVCDXMhw40[] = {
/* columns rows colors chars-per-pixel */
"32 32 88 1 ",
"  c #36271A",
". c #3E261B",
"X c #362A1A",
"o c #3E2D1D",
"O c #3B3017",
"+ c #3D301D",
"@ c #3F2D20",
"# c #3E2E2D",
"$ c #432C1E",
"% c #482C1F",
"& c #42311D",
"* c #53301D",
"= c #69321C",
"- c #432D21",
"; c #4A2E22",
": c #4B2C28",
"> c #433023",
", c #4B3225",
"< c #4A352A",
"1 c #673724",
"2 c #8E3B1B",
"3 c #A64013",
"4 c #AE4317",
"5 c #AD461D",
"6 c #B34417",
"7 c #BE4210",
"8 c #B74719",
"9 c #BB4419",
"0 c #B9481A",
"q c #8E4623",
"w c #914223",
"e c #9A4A21",
"r c #94482A",
"t c #9E4A2D",
"y c #9F4B30",
"u c #B34B23",
"i c #BE4E22",
"p c #CA4615",
"a c #C24A17",
"s c #CF4A15",
"d c #C44B1C",
"f c #D74712",
"g c #D44A14",
"h c #D84C14",
"j c #D14E1C",
"k c #D84E18",
"l c #D45219",
"z c #DA521C",
"x c #E9571C",
"c c #E7591F",
"v c #E8581C",
"b c #C14F23",
"n c #C35125",
"m c #C95224",
"M c #C65A27",
"N c #CE5D24",
"B c #C6542B",
"V c #C9562A",
"C c #C65929",
"Z c #C9592B",
"A c #D65725",
"S c #D95726",
"D c #D55923",
"F c #D45826",
"G c #D65827",
"H c #D75827",
"J c #DA5922",
"K c #DA5B25",
"L c #D85827",
"P c #D95729",
"I c #DA572B",
"U c #D7582A",
"Y c #D95928",
"T c #DB5928",
"R c #DA5F2C",
"E c #DD5F2D",
"W c #CE5D32",
"Q c #E75C20",
"! c #E75E22",
"~ c #E95E23",
"^ c #E1582D",
"/ c #DF6431",
"( c #E46433",
") c #E56534",
"_ c #E76534",
"` c #E66635",
"' c #E76635",
"] c #E96736",
/* pixels */
"9hfhhkpfk-nBBmBBiB:SAHDFFln,ffff",
"kkkhkhkhkummmmmmmm;HLLHHHUHXhhhh",
"hhkkhkhkhummmBmmmm$LLLLLHHL$hhfh",
"khkhkkzhhummmmmmmm-LLLLLLHnohhhh",
"dpppppppp;mmmnmmmm-LLnLL^*D*ffff",
"nbn5oLEYLLLLLzLHLLdLHLHxvvvvvvvv",
"nnbnoLRUHHKULJHHLLYYHLLxv~vvvvvv",
"bnbboLHYKHUYUlHKLLLLAAHxvvvvvvvv",
"nndn$HHSHIISHNHUEKHUHLHc!vvvvvvc",
"=wwqwwqwq-tttttttt-22222222+rrrr",
"YdHLLHLLYW((''__'($ssssssss$////",
"/LLLLLYLIW'('](((]-sshsssss&////",
"IHLLLLLLHW]]Z]__]'-spsjssgso////",
"LLLLLLRKL1]]]]](''+gggsgspg#////",
"LYLLuVZZZZZZZVILHLLKYLJzHkJzJzzz",
"0mYKuVVZZZZZZMLLYAYHLHHkAzzzzzzz",
"LHYLuZZZVZCVVCLHHLLLLLHzzzJKzzHz",
"LKHUnVZZCZZVZMHHLLLLLJKzhHzzHkzz",
"o-$&>+&$>,$->1$$$$$$%&%$$$,$$$$$",
"jkzzlzzlziUYHKHKHH>93888900$HKHL",
"zzklkllklnYYiKYHKH-00000848oHHHH",
"kzJzlzzzlnKHHHRHYH-90080008 HYHU",
"jljlllllleHHHHHLUH$46088883ODDHH",
"LLLK>0ddddddddLLHLHKUYHfhhhhhfhg",
"LLLY-dddddd0daLLLLLIKHHhhhhhhfhf",
"HHLL-ddddddadaLLLLLLRHJk7ghhhhhh",
"HLKL$ddddddddaUHLLLLHHUfphffhffh",
"$$$-.$$$$$$$$--$$$$$-$@-$.o;$$$$",
"zzzzzzzJzbYAFIHHLL<nbbbiin0$LbLL",
"zkxzzzzzzbYIHINHLL$nbbbbini$LLLL",
"zzlzzzzvhnLLHHKYHJ$ib5bbnin$LLLL",
"!zkxzzkzxuDDDADDDH:bbibbbunODJDD"
};
